<svg width="53" height="52" viewBox="0 0 104 104" version="1.1" xmlns="http://www.w3.org/2000/svg" xmlns:xlink="http://www.w3.org/1999/xlink" xml:space="preserve" xmlns:serif="http://www.serif.com/" style="fill-rule:evenodd;clip-rule:evenodd;stroke-linejoin:round;stroke-miterlimit:2;">
    <g transform="matrix(1,0,0,1,-26.731,-7.84003)">
        <g transform="matrix(1.05169,0,0,0.855317,-1.11751,12.2987)">
            <path d="M123.089,85.005L85.997,85.041C85.997,85.041 85.997,85.042 85.997,85.043C85.994,86.835 84.813,88.287 83.356,88.29C79.255,88.298 71.391,88.313 67.25,88.321C66.544,88.322 65.869,87.969 65.38,87.343C64.891,86.717 64.631,85.873 64.66,85.006C64.66,85.005 64.66,85.005 64.66,85.005L28.25,85.005L28.25,85.005C28.25,88.076 29.242,91.02 31.007,93.191C32.773,95.363 35.168,96.582 37.665,96.582C55.828,96.582 95.511,96.582 113.674,96.582C116.171,96.582 118.566,95.363 120.331,93.191C122.097,91.02 123.089,88.076 123.089,85.005C123.089,85.005 123.089,85.005 123.089,85.005Z" style="fill:rgb(252,151,0);"/>
        </g>
        <path d="M120.847,28.192C120.847,25.444 118.619,23.216 115.87,23.216C100.702,23.216 55.16,23.216 39.924,23.216C38.591,23.216 37.312,23.745 36.369,24.688C35.426,25.631 34.897,26.91 34.897,28.243C34.897,42.456 34.897,81.902 34.897,81.902L120.847,81.902L120.847,28.192ZM114.502,29.398L41.416,29.398L41.416,74.692L114.502,74.692L114.502,29.398Z" style="fill:rgb(252,151,0);"/>
        <g>
            <g>
                <path d="M67.914,40.875L67.914,46L59.172,51.292L67.913,56.068L67.913,61.565C67.913,61.565 59.281,56.922 53.61,53.872C52.649,53.355 52.049,52.353 52.047,51.262C52.045,50.171 52.641,49.167 53.6,48.647C59.271,45.568 67.914,40.875 67.914,40.875Z" style="fill:rgb(252,151,0);"/>
                <g transform="matrix(1.05393,0,0,1.0431,-3.94443,-2.52782)">
                    <path d="M70.126,69.449L74.75,69.449L85.708,35.011L80.683,35.011L70.126,69.449Z" style="fill:rgb(252,151,0);"/>
                </g>
                <g transform="matrix(-1,-1.22465e-16,1.22465e-16,-1,155.943,102.44)">
                    <path d="M67.914,40.875L67.914,46L59.172,51.292L67.913,56.068L67.913,61.565C67.913,61.565 59.281,56.922 53.61,53.872C52.649,53.355 52.049,52.353 52.047,51.262C52.045,50.171 52.641,49.167 53.6,48.647C59.271,45.568 67.914,40.875 67.914,40.875Z" style="fill:rgb(252,151,0);"/>
                </g>
            </g>
        </g>
        <g id="frame" transform="matrix(1,0,0,1,-0.027323,-11.2573)">
            <rect x="26.758" y="19.097" width="103.085" height="103.085" style="fill:none;"/>
        </g>
    </g>
</svg>
